<?xml version="1.0" standalone="no"?><svg xmlns="http://www.w3.org/2000/svg" viewBox="0 0 1440 320"><path fill="#273036" fill-opacity="1" d="M0,64L18.5,85.3C36.9,107,74,149,111,160C147.7,171,185,149,222,165.3C258.5,181,295,235,332,240C369.2,245,406,203,443,197.3C480,192,517,224,554,245.3C590.8,267,628,277,665,261.3C701.5,245,738,203,775,176C812.3,149,849,139,886,117.3C923.1,96,960,64,997,58.7C1033.8,53,1071,75,1108,80C1144.6,85,1182,75,1218,74.7C1255.4,75,1292,85,1329,96C1366.2,107,1403,117,1422,122.7L1440,128L1440,320L1421.5,320C1403.1,320,1366,320,1329,320C1292.3,320,1255,320,1218,320C1181.5,320,1145,320,1108,320C1070.8,320,1034,320,997,320C960,320,923,320,886,320C849.2,320,812,320,775,320C738.5,320,702,320,665,320C627.7,320,591,320,554,320C516.9,320,480,320,443,320C406.2,320,369,320,332,320C295.4,320,258,320,222,320C184.6,320,148,320,111,320C73.8,320,37,320,18,320L0,320Z"></path></svg>